<mxfile host="app.diagrams.net" modified="2024-06-18T02:14:00.431Z" agent="Mozilla/5.0 (Macintosh; Intel Mac OS X 10_15_7) AppleWebKit/537.36 (KHTML, like Gecko) Chrome/125.0.0.0 Safari/537.36" version="24.5.2" etag="iDRMV6BBJGFZ8efPImib" type="github">
  <diagram name="Page-1" id="4RWJ1lXC7HRbisxCzYER">
    <mxGraphModel>
      <root>
        <mxCell id="0" />
        <mxCell id="1" parent="0" />
      </root>
    </mxGraphModel>
  </diagram>
</mxfile>
